<mxfile host="app.diagrams.net" modified="2022-05-03T08:38:29.433Z" agent="5.0 (Windows NT 10.0; Win64; x64) AppleWebKit/537.36 (KHTML, like Gecko) Chrome/101.0.4951.54 Safari/537.36" etag="5hNg4qqZfk-vLv4Xe_Tu" version="17.5.0" type="github">
  <diagram id="C5RBs43oDa-KdzZeNtuy" name="Page-1">
    <mxGraphModel dx="1052" dy="545" grid="1" gridSize="10" guides="1" tooltips="1" connect="1" arrows="1" fold="1" page="1" pageScale="1" pageWidth="827" pageHeight="1169" math="0" shadow="0">
      <root>
        <mxCell id="WIyWlLk6GJQsqaUBKTNV-0" />
        <mxCell id="WIyWlLk6GJQsqaUBKTNV-1" parent="WIyWlLk6GJQsqaUBKTNV-0" />
        <mxCell id="SzYyGmYEJWDLY--DbEmP-5" value="" style="edgeStyle=orthogonalEdgeStyle;rounded=0;orthogonalLoop=1;jettySize=auto;html=1;" edge="1" parent="WIyWlLk6GJQsqaUBKTNV-1" source="SzYyGmYEJWDLY--DbEmP-0" target="SzYyGmYEJWDLY--DbEmP-4">
          <mxGeometry relative="1" as="geometry" />
        </mxCell>
        <mxCell id="SzYyGmYEJWDLY--DbEmP-0" value="语音唤醒？" style="rhombus;whiteSpace=wrap;html=1;shadow=0;fontFamily=Helvetica;fontSize=12;align=center;strokeWidth=1;spacing=6;spacingTop=-4;" vertex="1" parent="WIyWlLk6GJQsqaUBKTNV-1">
          <mxGeometry x="282.5" y="120" width="110" height="80" as="geometry" />
        </mxCell>
        <mxCell id="SzYyGmYEJWDLY--DbEmP-2" style="edgeStyle=orthogonalEdgeStyle;rounded=0;orthogonalLoop=1;jettySize=auto;html=1;exitX=1;exitY=0.5;exitDx=0;exitDy=0;entryX=0.5;entryY=0;entryDx=0;entryDy=0;" edge="1" parent="WIyWlLk6GJQsqaUBKTNV-1" source="SzYyGmYEJWDLY--DbEmP-0" target="SzYyGmYEJWDLY--DbEmP-0">
          <mxGeometry relative="1" as="geometry">
            <Array as="points">
              <mxPoint x="472.5" y="160" />
              <mxPoint x="472.5" y="90" />
              <mxPoint x="337.5" y="90" />
            </Array>
          </mxGeometry>
        </mxCell>
        <mxCell id="SzYyGmYEJWDLY--DbEmP-3" value="否" style="text;html=1;strokeColor=none;fillColor=none;align=center;verticalAlign=middle;whiteSpace=wrap;rounded=0;" vertex="1" parent="WIyWlLk6GJQsqaUBKTNV-1">
          <mxGeometry x="392.5" y="130" width="60" height="30" as="geometry" />
        </mxCell>
        <mxCell id="SzYyGmYEJWDLY--DbEmP-8" value="" style="edgeStyle=orthogonalEdgeStyle;rounded=0;orthogonalLoop=1;jettySize=auto;html=1;" edge="1" parent="WIyWlLk6GJQsqaUBKTNV-1" source="SzYyGmYEJWDLY--DbEmP-4" target="SzYyGmYEJWDLY--DbEmP-7">
          <mxGeometry relative="1" as="geometry" />
        </mxCell>
        <mxCell id="SzYyGmYEJWDLY--DbEmP-4" value="ASR语音转文本" style="whiteSpace=wrap;html=1;shadow=0;strokeWidth=1;spacing=6;spacingTop=-4;" vertex="1" parent="WIyWlLk6GJQsqaUBKTNV-1">
          <mxGeometry x="280" y="220" width="115" height="40" as="geometry" />
        </mxCell>
        <mxCell id="SzYyGmYEJWDLY--DbEmP-6" value="是" style="text;html=1;strokeColor=none;fillColor=none;align=center;verticalAlign=middle;whiteSpace=wrap;rounded=0;" vertex="1" parent="WIyWlLk6GJQsqaUBKTNV-1">
          <mxGeometry x="332.5" y="190" width="60" height="30" as="geometry" />
        </mxCell>
        <mxCell id="SzYyGmYEJWDLY--DbEmP-10" value="" style="edgeStyle=orthogonalEdgeStyle;rounded=0;orthogonalLoop=1;jettySize=auto;html=1;" edge="1" parent="WIyWlLk6GJQsqaUBKTNV-1" source="SzYyGmYEJWDLY--DbEmP-7" target="SzYyGmYEJWDLY--DbEmP-9">
          <mxGeometry relative="1" as="geometry" />
        </mxCell>
        <mxCell id="SzYyGmYEJWDLY--DbEmP-7" value="NPL进行意图提取" style="whiteSpace=wrap;html=1;shadow=0;strokeWidth=1;spacing=6;spacingTop=-4;" vertex="1" parent="WIyWlLk6GJQsqaUBKTNV-1">
          <mxGeometry x="280" y="280" width="115" height="40" as="geometry" />
        </mxCell>
        <mxCell id="SzYyGmYEJWDLY--DbEmP-13" value="" style="edgeStyle=orthogonalEdgeStyle;rounded=0;orthogonalLoop=1;jettySize=auto;html=1;" edge="1" parent="WIyWlLk6GJQsqaUBKTNV-1" source="SzYyGmYEJWDLY--DbEmP-9" target="SzYyGmYEJWDLY--DbEmP-11">
          <mxGeometry relative="1" as="geometry" />
        </mxCell>
        <mxCell id="SzYyGmYEJWDLY--DbEmP-14" value="" style="edgeStyle=orthogonalEdgeStyle;rounded=0;orthogonalLoop=1;jettySize=auto;html=1;" edge="1" parent="WIyWlLk6GJQsqaUBKTNV-1" source="SzYyGmYEJWDLY--DbEmP-9" target="SzYyGmYEJWDLY--DbEmP-12">
          <mxGeometry relative="1" as="geometry" />
        </mxCell>
        <mxCell id="SzYyGmYEJWDLY--DbEmP-9" value="是否属于技能?" style="rhombus;whiteSpace=wrap;html=1;shadow=0;fontFamily=Helvetica;fontSize=12;align=center;strokeWidth=1;spacing=6;spacingTop=-4;" vertex="1" parent="WIyWlLk6GJQsqaUBKTNV-1">
          <mxGeometry x="282.5" y="340" width="110" height="80" as="geometry" />
        </mxCell>
        <mxCell id="SzYyGmYEJWDLY--DbEmP-19" value="" style="edgeStyle=orthogonalEdgeStyle;rounded=0;orthogonalLoop=1;jettySize=auto;html=1;" edge="1" parent="WIyWlLk6GJQsqaUBKTNV-1" source="SzYyGmYEJWDLY--DbEmP-11" target="SzYyGmYEJWDLY--DbEmP-18">
          <mxGeometry relative="1" as="geometry" />
        </mxCell>
        <mxCell id="SzYyGmYEJWDLY--DbEmP-11" value="执行该技能" style="whiteSpace=wrap;html=1;shadow=0;strokeWidth=1;spacing=6;spacingTop=-4;" vertex="1" parent="WIyWlLk6GJQsqaUBKTNV-1">
          <mxGeometry x="280" y="440" width="115" height="40" as="geometry" />
        </mxCell>
        <mxCell id="SzYyGmYEJWDLY--DbEmP-22" style="edgeStyle=orthogonalEdgeStyle;rounded=0;orthogonalLoop=1;jettySize=auto;html=1;exitX=0.5;exitY=1;exitDx=0;exitDy=0;entryX=1;entryY=0.5;entryDx=0;entryDy=0;" edge="1" parent="WIyWlLk6GJQsqaUBKTNV-1" source="SzYyGmYEJWDLY--DbEmP-12" target="SzYyGmYEJWDLY--DbEmP-20">
          <mxGeometry relative="1" as="geometry" />
        </mxCell>
        <mxCell id="SzYyGmYEJWDLY--DbEmP-12" value="聊天机器人兜底" style="whiteSpace=wrap;html=1;shadow=0;strokeWidth=1;spacing=6;spacingTop=-4;" vertex="1" parent="WIyWlLk6GJQsqaUBKTNV-1">
          <mxGeometry x="470" y="360" width="115" height="40" as="geometry" />
        </mxCell>
        <mxCell id="SzYyGmYEJWDLY--DbEmP-15" value="是" style="text;html=1;strokeColor=none;fillColor=none;align=center;verticalAlign=middle;whiteSpace=wrap;rounded=0;" vertex="1" parent="WIyWlLk6GJQsqaUBKTNV-1">
          <mxGeometry x="335" y="410" width="60" height="30" as="geometry" />
        </mxCell>
        <mxCell id="SzYyGmYEJWDLY--DbEmP-17" value="否" style="text;html=1;strokeColor=none;fillColor=none;align=center;verticalAlign=middle;whiteSpace=wrap;rounded=0;" vertex="1" parent="WIyWlLk6GJQsqaUBKTNV-1">
          <mxGeometry x="392.5" y="350" width="60" height="30" as="geometry" />
        </mxCell>
        <mxCell id="SzYyGmYEJWDLY--DbEmP-21" value="" style="edgeStyle=orthogonalEdgeStyle;rounded=0;orthogonalLoop=1;jettySize=auto;html=1;" edge="1" parent="WIyWlLk6GJQsqaUBKTNV-1" source="SzYyGmYEJWDLY--DbEmP-18" target="SzYyGmYEJWDLY--DbEmP-20">
          <mxGeometry relative="1" as="geometry" />
        </mxCell>
        <mxCell id="SzYyGmYEJWDLY--DbEmP-18" value="获得该技能回复" style="whiteSpace=wrap;html=1;shadow=0;strokeWidth=1;spacing=6;spacingTop=-4;" vertex="1" parent="WIyWlLk6GJQsqaUBKTNV-1">
          <mxGeometry x="280" y="500" width="115" height="40" as="geometry" />
        </mxCell>
        <mxCell id="SzYyGmYEJWDLY--DbEmP-20" value="TTS文本转语音回复" style="whiteSpace=wrap;html=1;shadow=0;strokeWidth=1;spacing=6;spacingTop=-4;" vertex="1" parent="WIyWlLk6GJQsqaUBKTNV-1">
          <mxGeometry x="273.75" y="560" width="127.5" height="40" as="geometry" />
        </mxCell>
      </root>
    </mxGraphModel>
  </diagram>
</mxfile>
